<svg width="205" height="23" viewBox="0 0 205 23" fill="none" xmlns="http://www.w3.org/2000/svg">
 <al id="svgTitle">Dentsu World Services</al>
<path d="M28.6461 4.13662C23.5575 3.0785 20.9026 6.16628 20.9026 6.16628C20.9026 6.16628 17.7667 9.31177 18.4208 14.5446C19.0749 19.7775 22.9996 21.0857 22.9996 21.0857C22.9996 21.0857 27.1839 23.5771 33.8597 20.4316V16.0645C33.8597 16.0645 31.6376 17.9402 27.0589 17.9402C27.0589 17.9402 23.9134 17.9402 23.1342 14.2753H34.1675V10.8989C34.1675 10.8989 34.331 5.31016 28.6557 4.13662M23.2881 10.4757C23.2881 10.4757 24.0577 7.85926 26.5491 7.85926C29.0404 7.85926 29.6849 10.4757 29.6849 10.4757H23.2881Z" fill="#202122"/>
<path d="M10.9366 4.46376C10.9366 4.46376 9.99395 4.40604 8.74345 4.46376C6.78112 4.54071 4.82842 4.60805 3.11619 6.17598C1.69254 7.47458 -0.365972 10.3411 0.730621 15.9491C0.961483 17.1419 1.43283 18.277 2.15427 19.2485C3.02 20.4125 4.42441 21.6245 6.58874 21.8169C6.58874 21.8169 9.33984 22.3363 11.0328 21.0281V21.5475H15.5442V0.798828H10.9366V4.46376ZM10.9655 17.0842C8.58954 18.2674 7.04084 17.7768 6.12701 17.0842C5.46329 16.584 5.04966 15.8337 4.93423 15.0064C4.7707 13.7944 4.61679 11.986 5.2709 10.2834C6.35788 7.46496 10.9655 8.1864 10.9655 8.1864V17.0746V17.0842Z" fill="#202122"/>
<path d="M47.4323 4.14622C44.3445 3.81917 42.2186 4.83881 42.2186 4.83881V4.39632H37.5918V21.5378H42.3052V8.84041C42.9593 8.05163 45.1814 8.05163 45.1814 8.05163C48.0575 8.05163 47.7978 10.9278 47.7978 10.9278V21.5859H52.3766V9.87929C52.3766 8.31135 51.886 7.14743 51.28 6.30093C50.3758 5.06005 48.9617 4.29051 47.4323 4.1366" fill="#202122"/>
<path d="M60.8217 0.866211H56.166V16.0069C56.166 19.0947 56.9067 19.9508 57.4165 20.4798C57.7147 20.7973 58.0706 21.0474 58.465 21.2301C61.3893 22.5865 63.7941 21.7111 65.9776 21.2205V17.1804C65.9776 17.1804 64.9291 17.4883 62.7071 17.7576C60.4851 18.0173 60.7448 15.6606 60.7448 15.6606V8.33074C61.3989 8.19607 65.9776 8.54236 65.9776 8.54236V4.43495H60.8121V0.866211H60.8217Z" fill="#202122"/>
<path d="M81.0996 12.0533C80.5802 11.6878 79.3682 11.3126 78.3966 11.0625C77.7521 10.899 77.1077 10.774 76.4439 10.6874C74.8183 10.4854 74.2892 9.95633 74.2892 9.95633C73.5582 9.00403 74.3373 8.46535 75.1838 8.32106C75.9245 8.18639 76.5786 8.18639 77.2904 8.23449C80.2147 8.40763 82.3982 9.61966 82.3982 9.61966V5.51224C79.5221 3.94431 76.5113 4.06936 76.5113 4.06936C73.0868 3.98278 71.1918 5.55072 70.3165 6.57998C69.9125 7.06094 69.6431 7.63809 69.5181 8.25372C68.6523 12.4189 70.884 13.2653 71.7978 13.8136C72.4519 14.208 73.8948 14.4678 76.6363 15.1219C79.3874 15.776 78.2042 17.1611 78.2042 17.1611C78.2042 17.1611 77.9445 17.8152 75.1934 17.6806C72.4423 17.5459 69.5662 16.1992 69.5662 16.1992V20.4221C69.5662 20.4221 72.3173 22.5191 76.8479 21.9419C80.5898 21.4609 81.8403 19.9411 82.1674 19.4217C82.2347 19.3255 82.2924 19.2197 82.3694 19.1331C82.5906 18.8541 83.0812 18.0269 83.1774 16.1126C83.3121 13.6309 82.0038 12.7074 81.0804 12.0533" fill="#202122"/>
<path d="M96.2592 17.1707C95.6147 17.9595 93.4696 17.8826 93.4696 17.8826C90.7185 18.0172 90.8147 15.0737 90.8147 15.0737V4.40601H86.2744V16.1222C86.2744 16.3435 86.284 16.5647 86.3033 16.7667C86.5341 19.9699 88.5061 21.8072 91.7093 21.913C94.4892 22.0092 96.3458 21.1723 96.3458 21.1723V21.6148H100.934V4.46372H96.2592V17.1611V17.1707Z" fill="#202122"/>
<path d="M117.96 20.1719L116.123 14.0156H115.132L113.295 20.1719L112.045 14.0156H110.804L112.679 22.1343H113.757L115.584 15.901L117.422 22.1343H118.528L120.356 14.0156H119.124L117.96 20.1719Z" fill="#202122"/>
<path d="M125.704 13.91C125.127 13.7464 124.511 13.7368 123.934 13.91C122.722 14.2563 120.76 15.4587 121.404 19.518C121.404 19.518 121.933 22.5673 125.069 22.3941C128.667 22.2018 128.291 17.9981 128.291 17.9981C128.291 17.9981 128.445 14.6987 125.704 13.91ZM125.098 21.2975C122.866 21.5765 122.597 19.1525 122.597 19.1525C122.097 15.8627 123.607 15.0931 124.338 14.9104C124.559 14.8527 124.79 14.8527 125.011 14.8911C127.012 15.2278 127.079 17.3729 127.099 18.0174C127.137 19.6623 126.608 21.1244 125.098 21.3072" fill="#202122"/>
<path d="M131.024 14.2176V13.9579H129.879V22.1343H131.081V15.3912C131.081 15.3912 131.697 14.9487 133.005 14.9776C133.284 14.9776 133.563 15.0353 133.823 15.1411C133.909 15.1796 133.996 15.218 134.034 15.2565V14.0156C134.034 14.0156 132.207 13.5539 131.024 14.208" fill="#202122"/>
<path d="M166.884 14.2176V13.9579H165.739V22.1343H166.942V15.3912C166.942 15.3912 167.557 14.9487 168.866 14.9776C169.144 14.9776 169.423 15.0353 169.683 15.1411C169.77 15.1796 169.856 15.218 169.895 15.2565V14.0156C169.895 14.0156 168.067 13.5539 166.884 14.208" fill="#202122"/>
<path d="M136.708 12.0532H135.544V22.1342H136.708V12.0532Z" fill="#202122"/>
<path d="M143.663 13.7848C143.663 13.7848 139.199 13.4963 138.68 16.382C138.161 19.2582 138.93 21.3744 139.988 21.8746C142.21 22.9231 143.663 21.8746 143.663 21.8746V22.1343H144.884V12.063H143.663V13.7848ZM143.624 20.7107C143.624 20.7107 139.728 22.6634 139.728 18.2097C139.728 18.2097 139.536 15.2662 142.153 15.0065C142.239 15.0065 142.547 15.0065 142.672 15.0065H143.624V20.7107Z" fill="#202122"/>
<path d="M154.878 18.1904C154.426 17.8826 153.907 17.7095 153.368 17.6325C152.637 17.5363 151.339 17.2574 151.252 16.5071C151.117 15.4586 151.771 15.1988 151.771 15.1988C153.474 14.285 155.436 15.7087 155.436 15.7087V14.4197C153.734 13.3712 151.646 14.0253 151.646 14.0253C151.646 14.0253 150.338 14.285 150.078 15.978C149.867 17.3728 150.713 17.8922 151.021 18.0365L151.252 18.1423C151.502 18.2674 152.108 18.5367 153.089 18.7291C153.657 18.8445 154.003 19.0081 154.215 19.1523C154.417 19.287 154.542 19.5083 154.58 19.7487C154.59 19.8449 154.6 19.9219 154.609 19.9988C154.619 20.4413 154.33 20.8261 153.907 20.9608C152.041 21.5475 150.088 20.1816 150.088 20.1816V21.6052C150.896 22.1439 152.233 22.2594 152.993 22.2786C153.541 22.2882 154.09 22.1728 154.571 21.9131C155.1 21.6245 155.677 21.1339 155.84 20.3066C156.042 19.2774 155.513 18.6137 154.888 18.1904" fill="#202122"/>
<path d="M203.1 18.1904C202.648 17.8826 202.129 17.7095 201.59 17.6325C200.859 17.5363 199.56 17.2574 199.474 16.5071C199.339 15.4586 199.993 15.1988 199.993 15.1988C201.696 14.285 203.658 15.7087 203.658 15.7087V14.4197C201.955 13.3712 199.868 14.0253 199.868 14.0253C199.868 14.0253 198.56 14.285 198.3 15.978C198.089 17.3728 198.935 17.8922 199.243 18.0365L199.474 18.1423C199.724 18.2674 200.33 18.5367 201.311 18.7291C201.879 18.8445 202.225 19.0081 202.436 19.1523C202.638 19.287 202.763 19.5083 202.802 19.7487C202.812 19.8449 202.821 19.9219 202.831 19.9988C202.84 20.4413 202.552 20.8261 202.129 20.9608C200.262 21.5475 198.31 20.1816 198.31 20.1816V21.6052C199.118 22.1439 200.455 22.2594 201.215 22.2786C201.763 22.2882 202.311 22.1728 202.792 21.9131C203.321 21.6245 203.899 21.1339 204.062 20.3066C204.264 19.2774 203.735 18.6137 203.11 18.1904" fill="#202122"/>
<path d="M193.52 13.8137C192.596 13.8714 191.904 14.1408 191.394 14.4774C190.518 15.045 189.961 16.0069 189.893 17.0458C189.816 18.2674 189.961 19.1813 190.143 19.8065C190.393 20.653 190.971 21.3841 191.759 21.8073C193.972 22.9905 196.646 21.6534 196.646 21.6534V20.2971C196.646 20.2971 195.203 21.538 193.116 21.1436C191.019 20.7492 191.019 18.2097 191.019 18.2097H196.906V17.5556C196.906 17.1805 196.809 16.5552 196.733 16.1897C196.511 15.1316 195.463 13.6887 193.51 13.8233M195.722 17.2382H191.028C191.028 17.2382 191.019 15.978 192.115 15.2566C192.587 14.9488 193.164 14.8334 193.731 14.8911C194.212 14.9392 194.818 15.0835 195.193 15.5067C195.848 16.2474 195.713 17.2382 195.713 17.2382" fill="#202122"/>
<path d="M174.146 20.5663L172.03 14.0156H170.616L173.444 22.1343H174.704L177.638 14.0156H176.349L174.146 20.5663Z" fill="#202122"/>
<path d="M180.697 11.6589H179.379V12.9672H180.697V11.6589Z" fill="#202122"/>
<path d="M180.697 14.0156H179.379V22.1343H180.697V14.0156Z" fill="#202122"/>
<path d="M183.641 14.718L183.516 14.8238C182.948 15.3336 182.592 16.0166 182.429 16.7476C182.063 18.3925 182.323 20.8839 183.824 21.7304C186.421 23.2021 188.662 21.5861 188.662 21.5861V20.2875C187.546 21.0667 186.623 21.2494 185.93 21.2109C185.103 21.1628 184.372 20.6723 183.987 19.9412C183.535 19.0851 183.343 17.1997 184.083 16.0358C185.584 13.6791 188.527 15.8434 188.527 15.8434L188.662 15.9781V14.5256C188.075 14.1312 187.315 13.9484 186.7 13.8715C185.603 13.7368 184.487 14.0158 183.631 14.718" fill="#202122"/>
<path d="M160.805 13.8137C159.881 13.8714 159.189 14.1408 158.679 14.4774C157.813 15.045 157.246 16.0069 157.178 17.0458C157.101 18.2674 157.246 19.1813 157.428 19.8065C157.679 20.653 158.256 21.3841 159.045 21.8073C161.257 22.9905 163.931 21.6534 163.931 21.6534V20.2971C163.931 20.2971 162.488 21.538 160.401 21.1436C158.304 20.7492 158.304 18.2097 158.304 18.2097H164.191V17.5556C164.191 17.1805 164.095 16.5552 164.018 16.1897C163.796 15.1316 162.748 13.6887 160.795 13.8233M163.008 17.2382H158.313C158.313 17.2382 158.304 15.978 159.4 15.2566C159.872 14.9488 160.449 14.8334 161.016 14.8911C161.497 14.9392 162.103 15.0835 162.479 15.5067C163.133 16.2474 162.998 17.2382 162.998 17.2382" fill="#202122"/>
</svg>
